<svg id="Layer_1" data-name="Layer 1" xmlns="http://www.w3.org/2000/svg" viewBox="0 0 465.74 271.44"><defs><style>.cls-1,.cls-2,.cls-3{fill:none;stroke-miterlimit:10;stroke-width:15px;}.cls-1{stroke:#000;}.cls-1,.cls-4{opacity:0.6;}.cls-1,.cls-4,.cls-5{isolation:isolate;}.cls-2{stroke:#00a14b;}.cls-3{stroke:#1c75bc;}.cls-4,.cls-5{font-size:186.98px;font-family:NightBits;}.cls-5{fill:#231f20;}</style></defs><circle class="cls-1" cx="54.19" cy="244.47" r="19.46"/><circle class="cls-1" cx="196.14" cy="244.47" r="19.46"/><line class="cls-1" x1="163.32" y1="244.09" x2="87.77" y2="244.09"/><line class="cls-2" x1="163.32" y1="237.22" x2="87.77" y2="237.22"/><circle class="cls-2" cx="196.14" cy="238.37" r="19.46"/><circle class="cls-2" cx="54.19" cy="238.37" r="19.46"/><line class="cls-1" y1="13.99" x2="118.3" y2="13.99"/><line class="cls-2" y1="7.5" x2="118.3" y2="7.5"/><line class="cls-1" x1="54.19" y1="12.08" x2="53.42" y2="206.31"/><line class="cls-2" x1="54.19" y1="5.21" x2="53.42" y2="199.44"/><line class="cls-1" x1="411.55" y1="12.08" x2="412.31" y2="206.31"/><line class="cls-1" x1="465.74" y1="14.37" x2="347.44" y2="14.37"/><line class="cls-1" x1="302.41" y1="244.47" x2="377.97" y2="244.47"/><circle class="cls-1" cx="410.78" cy="244.47" r="19.46"/><circle class="cls-1" cx="287.98" cy="360.01" r="19.46" transform="translate(-173.6 372.76) rotate(-67.5)"/><line class="cls-3" x1="411.55" y1="5.21" x2="412.31" y2="199.44"/><line class="cls-3" x1="465.74" y1="7.5" x2="347.44" y2="7.5"/><line class="cls-3" x1="302.41" y1="237.6" x2="377.97" y2="237.6"/><circle class="cls-3" cx="269.97" cy="239.13" r="19.46"/><circle class="cls-3" cx="411.55" cy="239.13" r="19.46"/><text id="SCOO_ERS" data-name="SCOO ERS" class="cls-4" transform="translate(235.82 187.19)">S</text><text class="cls-5" transform="translate(239.84 182.22)">S</text><text class="cls-4" transform="translate(120.07 187.37)">G</text><text class="cls-5" transform="translate(125.18 181.34)">G</text></svg>